<svg width="258" height="234" viewBox="0 0 258 234" fill="none" xmlns="http://www.w3.org/2000/svg">
<path d="M7.536 74.848V76.032H2.688V79.792H6.624V80.976H2.688V86H1.232V74.848H7.536ZM13.1185 86.144C12.2972 86.144 11.5505 85.9573 10.8785 85.584C10.2172 85.2107 9.6945 84.6827 9.3105 84C8.93717 83.3067 8.7505 82.5067 8.7505 81.6C8.7505 80.704 8.9425 79.9147 9.3265 79.232C9.72117 78.5387 10.2545 78.0107 10.9265 77.648C11.5985 77.2747 12.3505 77.088 13.1825 77.088C14.0145 77.088 14.7665 77.2747 15.4385 77.648C16.1105 78.0107 16.6385 78.5333 17.0225 79.216C17.4172 79.8987 17.6145 80.6933 17.6145 81.6C17.6145 82.5067 17.4118 83.3067 17.0065 84C16.6118 84.6827 16.0732 85.2107 15.3905 85.584C14.7078 85.9573 13.9505 86.144 13.1185 86.144ZM13.1185 84.864C13.6412 84.864 14.1318 84.7413 14.5905 84.496C15.0492 84.2507 15.4172 83.8827 15.6945 83.392C15.9825 82.9013 16.1265 82.304 16.1265 81.6C16.1265 80.896 15.9878 80.2987 15.7105 79.808C15.4332 79.3173 15.0705 78.9547 14.6225 78.72C14.1745 78.4747 13.6892 78.352 13.1665 78.352C12.6332 78.352 12.1425 78.4747 11.6945 78.72C11.2572 78.9547 10.9052 79.3173 10.6385 79.808C10.3718 80.2987 10.2385 80.896 10.2385 81.6C10.2385 82.3147 10.3665 82.9173 10.6225 83.408C10.8892 83.8987 11.2412 84.2667 11.6785 84.512C12.1158 84.7467 12.5958 84.864 13.1185 84.864ZM23.3529 86.144C22.5315 86.144 21.7849 85.9573 21.1129 85.584C20.4515 85.2107 19.9289 84.6827 19.5449 84C19.1715 83.3067 18.9849 82.5067 18.9849 81.6C18.9849 80.704 19.1769 79.9147 19.5609 79.232C19.9555 78.5387 20.4889 78.0107 21.1609 77.648C21.8329 77.2747 22.5849 77.088 23.4169 77.088C24.2489 77.088 25.0009 77.2747 25.6729 77.648C26.3449 78.0107 26.8729 78.5333 27.2569 79.216C27.6515 79.8987 27.8489 80.6933 27.8489 81.6C27.8489 82.5067 27.6462 83.3067 27.2409 84C26.8462 84.6827 26.3075 85.2107 25.6249 85.584C24.9422 85.9573 24.1849 86.144 23.3529 86.144ZM23.3529 84.864C23.8755 84.864 24.3662 84.7413 24.8249 84.496C25.2835 84.2507 25.6515 83.8827 25.9289 83.392C26.2169 82.9013 26.3609 82.304 26.3609 81.6C26.3609 80.896 26.2222 80.2987 25.9449 79.808C25.6675 79.3173 25.3049 78.9547 24.8569 78.72C24.4089 78.4747 23.9235 78.352 23.4009 78.352C22.8675 78.352 22.3769 78.4747 21.9289 78.72C21.4915 78.9547 21.1395 79.3173 20.8729 79.808C20.6062 80.2987 20.4729 80.896 20.4729 81.6C20.4729 82.3147 20.6009 82.9173 20.8569 83.408C21.1235 83.8987 21.4755 84.2667 21.9129 84.512C22.3502 84.7467 22.8302 84.864 23.3529 84.864ZM31.5393 78.432V83.6C31.5393 84.0267 31.6299 84.3307 31.8113 84.512C31.9926 84.6827 32.3073 84.768 32.7552 84.768H33.8273V86H32.5153C31.7046 86 31.0966 85.8133 30.6913 85.44C30.2859 85.0667 30.0833 84.4533 30.0833 83.6V78.432H28.9473V77.232H30.0833V75.024H31.5393V77.232H33.8273V78.432H31.5393ZM43.5914 81.28C43.5914 81.5573 43.5754 81.8507 43.5434 82.16H36.5354C36.5887 83.024 36.882 83.7013 37.4154 84.192C37.9594 84.672 38.6154 84.912 39.3834 84.912C40.0127 84.912 40.5354 84.768 40.9514 84.48C41.378 84.1813 41.6767 83.7867 41.8474 83.296H43.4154C43.1807 84.1387 42.7114 84.8267 42.0074 85.36C41.3034 85.8827 40.4287 86.144 39.3834 86.144C38.5514 86.144 37.8047 85.9573 37.1434 85.584C36.4927 85.2107 35.9807 84.6827 35.6074 84C35.234 83.3067 35.0474 82.5067 35.0474 81.6C35.0474 80.6933 35.2287 79.8987 35.5914 79.216C35.954 78.5333 36.4607 78.0107 37.1114 77.648C37.7727 77.2747 38.53 77.088 39.3834 77.088C40.2154 77.088 40.9514 77.2693 41.5914 77.632C42.2314 77.9947 42.722 78.496 43.0634 79.136C43.4154 79.7653 43.5914 80.48 43.5914 81.28ZM42.0874 80.976C42.0874 80.4213 41.9647 79.9467 41.7194 79.552C41.474 79.1467 41.138 78.8427 40.7114 78.64C40.2954 78.4267 39.8314 78.32 39.3194 78.32C38.5834 78.32 37.954 78.5547 37.4314 79.024C36.9194 79.4933 36.626 80.144 36.5514 80.976H42.0874ZM46.9693 78.656C47.2253 78.1547 47.5879 77.7653 48.0573 77.488C48.5373 77.2107 49.1186 77.072 49.8013 77.072V78.576H49.4173C47.7853 78.576 46.9693 79.4613 46.9693 81.232V86H45.5133V77.232H46.9693V78.656Z" fill="#622550"/>
<path d="M65.0725 26.2162L65.4515 27.1415L65.4515 27.1415L65.0725 26.2162ZM25.2945 62.4684C25.6247 62.9111 26.2513 63.0023 26.694 62.6721L33.9085 57.2915C34.3512 56.9613 34.4424 56.3348 34.1123 55.8921C33.7821 55.4493 33.1555 55.3581 32.7128 55.6883L26.2999 60.4711L21.5171 54.0582C21.187 53.6154 20.5604 53.5242 20.1177 53.8544C19.675 54.1846 19.5837 54.8111 19.9139 55.2539L25.2945 62.4684ZM141.444 58.323C142.201 57.6693 142.2 57.6689 142.2 57.6683C142.199 57.6679 142.199 57.6671 142.198 57.6663C142.197 57.6646 142.194 57.6621 142.192 57.659C142.186 57.6527 142.178 57.6437 142.168 57.6319C142.147 57.6082 142.117 57.5735 142.077 57.5282C141.997 57.4376 141.879 57.3045 141.725 57.1323C141.415 56.7878 140.958 56.2865 140.365 55.655C139.178 54.3921 137.445 52.6077 135.254 50.5138C130.874 46.3283 124.652 40.896 117.291 35.9224C102.632 26.0174 83.1503 17.7307 64.6934 25.2908L65.4515 27.1415C82.9223 19.9854 101.627 27.7522 116.171 37.5796C123.412 42.4722 129.546 47.8259 133.872 51.9598C136.034 54.0257 137.742 55.7843 138.907 57.0246C139.49 57.6446 139.937 58.135 140.237 58.4692C140.387 58.6363 140.501 58.7643 140.576 58.85C140.614 58.8928 140.642 58.9251 140.661 58.9463C140.67 58.9569 140.677 58.9648 140.681 58.9699C140.683 58.9724 140.685 58.9743 140.686 58.9754C140.686 58.976 140.687 58.9763 140.687 58.9765C140.687 58.9767 140.687 58.9766 141.444 58.323ZM64.6934 25.2908C46.5786 32.7107 36.6812 41.7308 31.3086 48.9657C28.6248 52.5798 27.0786 55.7372 26.2011 58.0086C25.7624 59.1439 25.4912 60.0572 25.3284 60.6947C25.247 61.0134 25.1927 61.2632 25.1582 61.4374C25.141 61.5245 25.1287 61.5927 25.1204 61.6411C25.1162 61.6653 25.1131 61.6846 25.1108 61.6989C25.1097 61.706 25.1088 61.7119 25.1081 61.7165C25.1077 61.7188 25.1074 61.7208 25.1072 61.7224C25.1071 61.7232 25.1069 61.7242 25.1068 61.7247C25.1067 61.7256 25.1066 61.7264 26.0961 61.8705C27.0857 62.0146 27.0856 62.0153 27.0855 62.0159C27.0855 62.016 27.0854 62.0165 27.0854 62.0167C27.0853 62.0171 27.0853 62.0172 27.0854 62.0169C27.0854 62.0164 27.0857 62.0147 27.0862 62.0117C27.0871 62.0057 27.0889 61.9947 27.0916 61.9789C27.0971 61.9472 27.1062 61.896 27.1201 61.8262C27.1478 61.6864 27.1941 61.472 27.2662 61.1895C27.4105 60.6244 27.6581 59.7869 28.0667 58.7294C28.8835 56.6149 30.345 53.618 32.9143 50.1581C38.0479 43.2449 47.6387 34.4378 65.4515 27.1415L64.6934 25.2908Z" fill="#6BD425"/>
<path fill-rule="evenodd" clip-rule="evenodd" d="M201.439 14.5405C201.139 12.0663 199.491 11.9648 198.734 12.056C198.43 11.319 198.009 10.6909 197.555 10.3982C195.192 8.81985 192.591 10.3173 191.472 20.4302C190.126 33.5071 183.708 35.7959 169.055 61.2275C154.403 86.659 147.876 94.0447 133.085 110.225C118.342 126.463 88.5475 161.06 88.5475 161.06C78.7599 172.391 76.7034 174.913 71.7275 190.747C66.7517 206.582 98.0511 220.952 98.0511 220.952L145.061 177.303L120.627 178.478C138.917 164.86 153.318 137.012 161.875 118.361C175.751 88.1447 177.332 92.8959 179.603 92.6223C181.875 92.3487 185.181 93.5608 189.561 90.207C195.045 85.9309 195.455 74.8457 194.983 62.3351C194.464 49.7672 202.951 38.6246 203.908 33.0467C204.051 32.0979 204.029 31.2006 203.959 30.246C206.038 28.622 208.386 23.5869 205.624 23.3986C205.704 23.1206 205.842 22.7882 205.864 22.5646C206.576 19.5579 203.809 18.8651 203.489 18.8563C203.499 18.7445 203.51 18.6327 203.569 18.5783C203.711 16.5086 202.202 16.0747 201.408 15.9967C201.461 15.4377 201.455 14.9332 201.439 14.5405Z" fill="#F0B186"/>
<path fill-rule="evenodd" clip-rule="evenodd" d="M197.596 10.5141C197.394 10.3963 197.298 10.2816 197.143 10.2212L197.095 10.1638C196.94 10.1035 196.785 10.0432 196.679 10.0402C196.524 9.97991 196.359 10.0314 196.204 9.97107C195.991 9.96519 195.884 9.96225 195.718 10.0138C198.301 10.982 197.748 13.4336 197.172 14.9876C196.927 15.3172 196.789 15.6497 196.591 16.0368C195.467 18.3044 195.111 20.369 195.111 20.369C196.197 16.8108 197.631 14.6638 198.59 13.569C199.124 13.5837 200.404 13.619 200.511 14.7433C200.651 15.532 200.097 16.8623 199.633 17.8026C199.26 18.353 198.78 18.9004 198.466 19.3963C197.405 20.9929 196.714 24.8984 196.714 24.8984C197.96 20.784 198.637 19.8495 198.775 19.517C198.845 19.3507 199.804 18.2559 200.588 17.3244C200.588 17.3244 201.446 16.7313 202.274 17.5951C202.706 18.1116 202.584 18.8371 202.413 19.5052C201.454 20.6 199.945 22.4085 199.7 22.7382C199.386 23.2341 198.347 26.8497 198.347 26.8497C198.347 26.8497 199.823 23.134 200.137 22.6381C200.334 22.2511 202.131 20.7869 203.118 19.9731C203.71 19.9334 204.19 20.5073 204.516 21.0209C204.938 21.6492 204.757 22.4291 204.549 22.928C203.477 23.5151 201.605 24.6409 201.35 25.0823C199.804 27.843 199.832 29.2453 199.832 29.2453C199.832 29.2453 200.726 25.4576 202.507 24.7218C203.675 24.2494 204.56 23.9375 205.211 23.8433C205.51 24.0758 205.798 24.4201 205.9 25.0397C206.226 26.6745 203.064 28.9981 203.064 28.9981L204.884 29.5529C205.001 29.444 205.118 29.3351 205.187 29.1688C205.187 29.1688 205.187 29.1688 205.246 29.1144C205.363 29.0055 205.433 28.8392 205.55 28.7303C205.55 28.7303 205.55 28.7303 205.609 28.6758C205.726 28.567 205.795 28.4007 205.864 28.2344C205.864 28.2344 205.864 28.2344 205.923 28.1799C206.424 27.4089 206.77 26.5774 207.058 25.8004C207.068 25.6886 207.138 25.5223 207.148 25.4105C207.148 25.4105 207.207 25.356 207.159 25.2987C207.17 25.1868 207.18 25.075 207.191 24.9632C207.191 24.9632 207.191 24.9632 207.201 24.8513C207.212 24.7395 207.223 24.6276 207.233 24.5158C207.233 24.5158 207.233 24.5158 207.185 24.4584C207.083 23.8389 206.747 23.4372 206.118 23.3077C206.07 23.2503 206.011 23.3047 205.963 23.2473L205.973 23.1355C206.053 22.8574 206.181 22.6366 206.202 22.413C206.272 22.2467 206.234 22.0775 206.303 21.9112L206.314 21.7993C206.325 21.6875 206.335 21.5757 206.346 21.4638L206.356 21.352C206.367 21.2401 206.33 21.0709 206.282 21.0135C206.292 20.9017 206.196 20.7869 206.207 20.6751L206.159 20.6177C206.111 20.5603 206.121 20.4485 206.073 20.3911L206.025 20.3337C205.977 20.2763 205.929 20.2189 205.833 20.1041C205.833 20.1041 205.833 20.1041 205.785 20.0467C205.737 19.9893 205.641 19.8746 205.593 19.8172L205.545 19.7598C205.497 19.7024 205.449 19.645 205.401 19.5876L205.353 19.5302C205.305 19.4728 205.256 19.4154 205.15 19.4125L205.102 19.3551C205.054 19.2977 204.947 19.2948 204.899 19.2374L204.851 19.18C204.803 19.1226 204.803 19.1226 204.696 19.1197C204.648 19.0623 204.648 19.0623 204.541 19.0593C204.541 19.0593 204.493 19.0019 204.435 19.0564C204.387 18.999 204.328 19.0534 204.28 18.9961C204.019 18.9328 203.816 18.815 203.709 18.8121C203.72 18.7003 203.73 18.5884 203.789 18.534L203.8 18.4222C203.826 17.5819 203.511 16.9565 203.174 16.5548C203.078 16.44 202.972 16.437 202.876 16.3223C202.577 16.0898 202.209 16.0235 201.947 15.9603C201.84 15.9573 201.792 15.8999 201.734 15.9544C201.744 15.8425 201.755 15.7307 201.766 15.6189C201.776 15.507 201.797 15.2833 201.808 15.1715C201.829 14.9478 201.792 14.7786 201.754 14.6094C201.454 12.1342 199.806 12.0327 199.048 12.124C198.424 11.3779 198.05 10.8069 197.596 10.5141Z" fill="#E7A376"/>
<path fill-rule="evenodd" clip-rule="evenodd" d="M191.954 16.9702C192.262 14.8489 192.8 13.1262 193.833 11.249C194.201 11.3152 194.953 11.8404 195.007 12.4024C195.104 13.6381 193.5 16.4524 192.487 16.985C192.381 16.982 192.061 16.9732 191.954 16.9702Z" fill="#FFD2B4"/>
<path fill-rule="evenodd" clip-rule="evenodd" d="M193.507 11.8569C193.635 11.6363 193.762 11.4156 193.832 11.2493C194.2 11.3155 194.952 11.8408 195.006 12.4028C195.043 12.572 195.022 12.7956 194.953 12.9619C194.579 12.391 193.971 12.0379 193.507 11.8569Z" fill="#FFF3EC"/>
<path fill-rule="evenodd" clip-rule="evenodd" d="M198.245 13.7842C198.565 13.7931 199.114 14.2004 198.869 14.5298C198.321 15.2431 197.559 15.9504 197.021 16.5519C196.787 16.7696 196.467 16.7607 196.547 16.4828C196.727 15.7034 197.404 14.7695 198.245 13.7842Z" fill="#FFD2B4"/>
<path fill-rule="evenodd" clip-rule="evenodd" d="M198.245 13.784C198.565 13.7928 199.115 14.2003 198.869 14.5299C198.811 14.5843 198.752 14.6387 198.694 14.6931C198.677 14.3004 198.165 14.062 197.952 14.0562C198.117 14.0047 198.176 13.9502 198.245 13.784Z" fill="#FFF3EC"/>
<path fill-rule="evenodd" clip-rule="evenodd" d="M200.644 17.2712C200.905 17.3344 201.716 17.805 201.423 18.0771C200.837 18.6212 200 18.9903 199.494 19.2565C199.27 19.3624 198.961 19.2418 199.03 19.0756C199.366 18.3565 199.717 18.03 200.644 17.2712Z" fill="#FFD2B4"/>
<path fill-rule="evenodd" clip-rule="evenodd" d="M200.644 17.2713C200.905 17.3345 201.716 17.8053 201.423 18.0775C201.364 18.1319 201.306 18.1864 201.306 18.1864C201.338 17.8509 200.623 17.4949 200.409 17.489C200.468 17.4346 200.527 17.3801 200.644 17.2713Z" fill="#FFF3EC"/>
<path fill-rule="evenodd" clip-rule="evenodd" d="M201.028 21.7106C201.625 21.0547 202.083 20.7312 202.728 20.1326C203.096 20.1988 203.682 20.7753 203.224 21.0989C202.414 21.7489 201.322 22.5592 201.028 21.7106Z" fill="#FFD2B4"/>
<path fill-rule="evenodd" clip-rule="evenodd" d="M202.493 20.3503C202.552 20.2959 202.669 20.187 202.728 20.1326C203.144 20.2562 203.683 20.7755 203.166 21.1537C203.197 20.8182 202.861 20.4165 202.493 20.3503Z" fill="#FFF3EC"/>
<path fill-rule="evenodd" clip-rule="evenodd" d="M204.21 24.2662C204.402 24.4956 204.632 24.8943 204.493 25.2267C204.365 25.4473 203.608 25.5385 203.075 25.5238C202.755 25.515 202.243 25.2767 202.595 24.9501C203.112 24.5721 203.618 24.3059 204.21 24.2662Z" fill="#FFD2B4"/>
<path fill-rule="evenodd" clip-rule="evenodd" d="M204.21 24.2662C204.402 24.4957 204.632 24.8944 204.493 25.2269C204.435 25.2813 204.435 25.2813 204.317 25.3902C204.408 25.0003 204.034 24.4295 203.88 24.3692C203.997 24.2603 204.103 24.2632 204.21 24.2662Z" fill="#FFF3EC"/>
<path fill-rule="evenodd" clip-rule="evenodd" d="M173.953 71.9604C169.193 74.2389 169.559 80.526 163.121 85.2803C174.946 83.4768 175.037 74.6244 180.861 77.4752C180.538 72.9827 178.372 69.8966 173.953 71.9604Z" fill="url(#paint0_linear_147_1312)"/>
<path fill-rule="evenodd" clip-rule="evenodd" d="M173.95 71.9598C169.814 73.8629 169.551 78.8986 165.395 83.2666C170.643 79.2089 171.968 73.6982 178.043 71.6245C177.019 71.1479 175.623 71.2215 173.95 71.9598Z" fill="#F6C3A2"/>
<path fill-rule="evenodd" clip-rule="evenodd" d="M190.549 29.2069C195.388 35.1123 191.203 45.42 187.294 51.7005C181.419 61.2331 166.964 65.9898 159.999 78.5744C170.091 60.6403 176.86 49.5634 190.549 29.2069Z" fill="url(#paint1_linear_147_1312)"/>
<path fill-rule="evenodd" clip-rule="evenodd" d="M188.691 32.4616C188.257 37.0448 184.763 43.4488 180.854 49.7293C174.979 59.2619 166.591 64.2981 160.372 78.024C161.633 73.1834 175.061 52.7637 188.691 32.4616Z" fill="#F6C3A2"/>
<path fill-rule="evenodd" clip-rule="evenodd" d="M159.206 77.7098C158.252 79.3085 157.134 80.9587 155.957 82.6633C148.825 93.0572 142.73 99.8374 133.184 110.333C122.023 122.633 93.3684 155.968 80.1465 171.405C76.8602 176.189 74.8745 180.785 71.9001 190.173C81.9028 194.036 113.892 155.974 114.43 155.372C125.942 141.625 135.244 124.118 143.476 107.199C149.125 95.531 157.062 85.1033 160.729 75.1742C160.265 76.114 159.765 76.8847 159.206 77.7098Z" fill="url(#paint2_linear_147_1312)"/>
<path d="M159.129 77.8762C158.186 79.3631 157.126 80.9588 156.008 82.6089C148.877 93.0021 142.783 99.7819 133.226 110.388C125.529 118.861 109.766 136.861 96.4015 152.125C91.7245 157.487 88.603 161.099 88.603 161.099C82.115 168.652 78.9935 172.264 76.2094 178.519C98.7594 155.44 144.41 103.469 159.246 77.7674C159.198 77.71 159.139 77.7644 159.129 77.8762Z" fill="#F6C3A2"/>
<path fill-rule="evenodd" clip-rule="evenodd" d="M201.239 13.8069C200.7 12.1667 199.372 12.0741 198.722 12.1682C198.418 11.4312 197.996 10.8031 197.543 10.5104C196.791 9.98525 195.9 9.79254 195.17 10.1647C197.709 11.5798 197.326 14.4836 197.326 14.4836C197.326 14.4836 197.773 13.1509 199.064 14.1953C200.259 15.125 198.065 20.2205 197.799 20.7736C198.007 20.275 199.753 16.5121 201.018 17.2756C203.295 18.6274 199.635 22.8419 199.635 22.8419L202.693 19.8999C202.693 19.8999 203.584 20.0926 203.825 21.5003C203.916 22.2314 203.159 23.4435 202.424 24.432C202.658 24.2143 202.882 24.1084 203.048 24.0569C203.874 23.7995 205.079 24.6174 205.08 25.7383C205.081 26.8592 201.361 30.0072 201.361 30.0072C201.361 30.0072 200.49 35.8118 194.583 46.8017C186.333 62.2105 193.509 70.535 190.486 79.8671C188.746 85.2554 182.887 86.719 180.226 86.0291C177.624 85.2848 167.968 85.0744 156.341 106.779C143.149 131.467 118.906 161.623 118.906 161.623C118.906 161.623 100.503 183.197 92.1647 184.312C90.3786 184.543 123.838 197.011 123.838 197.011L145.057 177.308L120.622 178.484C121.198 178.051 121.715 177.673 122.29 177.241C122.466 177.077 122.642 176.914 122.866 176.808C122.925 176.754 122.983 176.699 123.042 176.645C123.335 176.373 123.676 176.158 123.969 175.886C124.204 175.668 124.38 175.505 124.614 175.287C124.907 175.015 125.259 174.688 125.552 174.416C125.786 174.199 126.021 173.981 126.255 173.763C126.431 173.6 126.607 173.437 126.783 173.273C126.9 173.164 127.017 173.056 127.135 172.947C127.369 172.729 127.604 172.511 127.838 172.294C127.897 172.239 127.955 172.185 128.014 172.13C128.248 171.913 128.483 171.695 128.717 171.477C128.952 171.259 129.245 170.987 129.431 170.712C129.724 170.44 129.969 170.111 130.204 169.893C130.204 169.893 130.204 169.893 130.263 169.838C130.497 169.621 130.742 169.291 130.977 169.074C131.211 168.856 131.397 168.581 131.632 168.363C131.691 168.309 131.749 168.254 131.808 168.2C132.042 167.982 132.287 167.653 132.58 167.38C132.826 167.051 133.119 166.779 133.364 166.449C133.609 166.12 133.843 165.902 134.088 165.573C134.147 165.518 134.264 165.409 134.275 165.297C134.451 165.134 134.637 164.859 134.765 164.638C135.01 164.309 135.244 164.091 135.49 163.762C135.735 163.432 135.98 163.103 136.214 162.885C136.459 162.555 136.704 162.226 136.891 161.951C137.008 161.842 137.019 161.73 137.136 161.621C137.264 161.401 137.439 161.237 137.567 161.017C137.812 160.687 138.057 160.358 138.303 160.028C138.361 159.974 138.372 159.862 138.489 159.753C138.617 159.533 138.851 159.315 138.979 159.094C139.224 158.765 139.469 158.435 139.714 158.106C139.832 157.997 139.901 157.831 139.959 157.776C140.087 157.556 140.204 157.447 140.332 157.226C140.577 156.897 140.822 156.567 141.02 156.18C141.089 156.014 141.206 155.905 141.334 155.684C141.451 155.576 141.52 155.409 141.637 155.3C141.883 154.971 142.138 154.53 142.383 154.2C142.501 154.091 142.511 153.979 142.628 153.871C142.698 153.704 142.815 153.596 142.884 153.429C143.14 152.988 143.443 152.604 143.699 152.163C148.296 144.836 153.5 135.62 158.399 125.667C158.724 125.059 159.001 124.395 159.326 123.787C159.869 122.569 160.46 121.408 160.993 120.302C161.052 120.248 161.062 120.136 161.062 120.136C161.387 119.528 161.605 118.918 161.872 118.365C175.749 88.1474 177.33 92.8988 179.601 92.6251C181.872 92.3515 185.178 93.5637 189.559 90.2098C195.043 85.9336 195.453 74.848 194.981 62.3371C194.83 59.4186 195.261 56.5722 195.894 53.8434C197.536 44.9777 202.72 38.2272 203.794 33.6612C203.863 33.4949 203.885 33.2714 203.895 33.1596C204.039 32.2108 204.017 31.3134 203.947 30.3588C204.064 30.2499 204.181 30.141 204.299 30.0322C204.357 29.9778 204.357 29.9778 204.416 29.9233C204.475 29.8689 204.475 29.8689 204.533 29.8145C204.592 29.7601 204.65 29.7056 204.709 29.6512C204.768 29.5968 204.768 29.5968 204.826 29.5423C204.943 29.4335 205.013 29.2673 205.13 29.1584C205.189 29.104 205.189 29.104 205.247 29.0496C205.364 28.9407 205.375 28.8289 205.492 28.72C205.551 28.6656 205.609 28.6112 205.62 28.4994C205.679 28.445 205.748 28.2787 205.807 28.2243C205.865 28.1699 205.876 28.0581 205.934 28.0037C205.993 27.9492 206.004 27.8374 206.121 27.7286C206.179 27.6742 206.179 27.6742 206.19 27.5624C206.201 27.4506 206.318 27.3417 206.328 27.2299C206.328 27.2299 206.328 27.2299 206.387 27.1755C206.446 27.1211 206.446 27.1211 206.456 27.0093C206.467 26.8975 206.584 26.7886 206.595 26.6768C206.595 26.6768 206.653 26.6224 206.605 26.565C206.744 26.2326 206.834 25.8428 206.925 25.4529C206.935 25.3411 206.946 25.2293 206.956 25.1175C206.978 24.894 206.999 24.6704 206.913 24.4438C206.742 23.9907 206.406 23.5892 205.767 23.5715C205.825 23.5171 205.777 23.4597 205.836 23.4053C205.836 23.4053 205.788 23.3479 205.729 23.4023C205.809 23.1243 205.947 22.7919 205.969 22.5683C206.038 22.4021 206 22.2329 206.07 22.0667L206.08 21.9549C206.091 21.8431 206.101 21.7313 206.112 21.6195L206.123 21.5077C206.133 21.3959 206.096 21.2267 206.106 21.1149C205.673 19.4777 203.951 19.0379 203.738 19.032C203.796 18.9775 203.748 18.9202 203.807 18.8657C203.818 18.7539 203.828 18.6421 203.887 18.5877C203.849 18.4186 203.919 18.2523 203.881 18.0832C203.892 17.9714 203.854 17.8022 203.865 17.6904C203.544 16.5607 202.451 16.2503 201.87 16.1782C201.929 16.1238 201.881 16.0664 201.881 16.0664C201.881 16.0664 201.881 16.0664 201.774 16.0635C201.875 15.5618 201.917 15.1147 201.853 14.6645C201.864 14.5527 201.826 14.3836 201.778 14.3262C201.325 14.0335 201.336 13.9217 201.239 13.8069Z" fill="#ECAA7E"/>
<path fill-rule="evenodd" clip-rule="evenodd" d="M204.441 29.7087C204.5 29.6543 204.558 29.5999 204.617 29.5454C204.617 29.5454 204.617 29.5454 204.676 29.491C204.734 29.4366 204.793 29.3822 204.862 29.216C204.921 29.1615 204.979 29.1071 205.038 29.0527C205.155 28.9438 205.166 28.832 205.283 28.7232C205.342 28.6688 205.4 28.6144 205.352 28.557C205.469 28.4481 205.539 28.2819 205.597 28.2275C205.597 28.2275 205.597 28.2275 205.656 28.1731L205.714 28.1186C205.784 27.9524 205.901 27.8436 205.97 27.6774C205.97 27.6774 205.97 27.6774 206.029 27.6229C206.098 27.4567 206.167 27.2905 206.284 27.1817C206.354 27.0154 206.423 26.8492 206.492 26.683C203.801 28.5702 202.138 29.1968 202.389 30.4927C203.004 33.592 199.44 39.0418 194.292 52.1817C189.144 65.3217 196.242 76.1655 190.323 85.0249C185.849 91.6265 182.008 88.158 176.784 89.1347C171.56 90.1114 162.657 101.13 151.091 125.021C141.447 144.986 128.58 159.482 124.707 163.691C124.589 163.8 109.383 179.856 97.2349 184.509L138.734 183.188L145.065 177.31L120.631 178.485C121.207 178.053 121.724 177.675 122.299 177.243C122.475 177.079 122.651 176.916 122.875 176.81C123.051 176.647 123.227 176.484 123.509 176.323C123.685 176.16 123.802 176.051 123.978 175.888C124.212 175.67 124.388 175.507 124.623 175.289C124.681 175.235 124.74 175.18 124.74 175.18C125.033 174.908 125.267 174.69 125.561 174.418C125.795 174.201 126.029 173.983 126.264 173.765C126.557 173.493 126.85 173.221 127.202 172.894C127.436 172.677 127.671 172.459 127.905 172.241C128.198 171.969 128.491 171.697 128.736 171.368C128.971 171.15 129.205 170.932 129.45 170.603C129.568 170.494 129.685 170.385 129.861 170.222C130.036 170.058 130.212 169.895 130.282 169.729C130.516 169.511 130.761 169.182 130.995 168.964C131.289 168.692 131.534 168.362 131.827 168.09C132.061 167.873 132.306 167.543 132.541 167.325C132.716 167.162 132.844 166.942 133.02 166.778C133.137 166.669 133.255 166.561 133.324 166.394C133.51 166.119 133.803 165.847 133.99 165.572C134.235 165.243 134.528 164.971 134.773 164.641C134.959 164.366 135.252 164.094 135.439 163.819C135.556 163.71 135.567 163.598 135.684 163.489C135.812 163.269 136.046 163.051 136.174 162.83C136.361 162.555 136.654 162.283 136.84 162.008C137.085 161.679 137.33 161.349 137.634 160.965C137.82 160.69 138.065 160.361 138.252 160.086C138.369 159.977 138.438 159.81 138.555 159.702C138.683 159.481 138.918 159.263 139.046 159.043C139.232 158.768 139.477 158.438 139.664 158.163C139.781 158.054 139.85 157.888 139.967 157.779C140.095 157.558 140.281 157.283 140.457 157.12C140.644 156.845 140.83 156.57 141.017 156.295C141.075 156.24 141.075 156.24 141.134 156.186C141.379 155.857 141.635 155.415 141.88 155.086C142.066 154.811 142.194 154.59 142.38 154.315C142.812 153.71 143.254 152.994 143.685 152.39C148.351 144.897 153.614 135.627 158.63 125.565C159.035 124.68 159.429 123.906 159.833 123.021C159.903 122.855 159.972 122.688 160.089 122.579C160.435 121.748 160.888 120.92 161.234 120.089C161.5 119.536 161.777 118.871 162.043 118.318C175.92 88.1021 177.5 92.8533 179.772 92.5797C182.043 92.3061 185.349 93.5181 189.729 90.1644C195.213 85.8884 195.622 74.8034 195.151 62.293C195 59.3747 195.43 56.5284 196.063 53.7998C197.706 44.9344 202.889 38.1843 203.964 33.6185C204.033 33.4523 204.054 33.2287 204.065 33.1169C204.208 32.1681 204.186 31.2709 204.116 30.3162C204.233 30.2074 204.351 30.0985 204.468 29.9897C204.324 29.8176 204.382 29.7631 204.441 29.7087Z" fill="#E7A376"/>
<path fill-rule="evenodd" clip-rule="evenodd" d="M201.237 13.807C200.869 12.6199 200.095 12.3183 199.466 12.1889C198.992 12.1197 198.645 11.8299 198.415 11.4313C198.186 11.0326 197.898 10.6884 197.599 10.456C197.146 10.1632 196.682 9.98227 196.207 9.91313C197.695 10.5707 198.016 12.8214 198.56 12.7243C199.211 12.6302 200.011 13.2127 200.512 13.5628C200.763 13.7379 200.843 14.5808 200.886 15.2545C200.871 15.9827 201.292 16.6109 201.911 16.8521C202.53 17.0934 202.727 17.8274 202.888 18.3923C202.952 18.8424 203.229 19.2985 203.587 19.4765C203.837 19.6515 204.184 19.9413 204.627 20.3458C205.107 20.9196 205.177 21.8743 205.113 22.5451C205.06 23.1041 205.29 23.5028 205.626 23.9044C205.925 24.1368 206.096 24.5899 206.011 25.4843C205.921 26.995 204.355 28.8574 203.465 29.7856C203.113 30.1122 202.964 30.5564 202.97 31.061C202.89 32.46 202.386 36.0891 199.521 41.5025C196.123 48.0222 194.234 56.0968 193.931 57.6017C193.862 57.768 193.735 59.1096 193.772 59.2787C194.289 67.3636 194.076 76.9416 193.044 81.0606C190.698 90.5798 183.762 92.1259 180.557 91.533C177.352 90.9402 175.182 90.7122 169.701 100.593C165.323 108.431 160.333 119.895 148.456 141.425C140.711 155.447 134.706 162.96 131.488 166.458C131.429 166.512 130.422 167.55 128.898 168.965C128.839 169.019 128.781 169.074 128.781 169.074C126.777 171.036 121.815 174.318 117.332 177.053C115.685 178.072 116.353 180.612 118.139 180.382C128.243 179.259 143.422 177.604 144.605 177.525L144.899 177.253L120.617 178.488C121.134 178.11 121.651 177.732 122.062 177.351C122.355 177.079 122.755 176.81 123.106 176.483C123.165 176.429 123.165 176.429 123.224 176.374C123.341 176.266 123.458 176.157 123.575 176.048C123.575 176.048 123.575 176.048 123.634 175.993C123.868 175.776 124.103 175.558 124.279 175.395C124.865 174.85 125.51 174.252 126.096 173.707L126.155 173.653C126.741 173.109 127.386 172.51 127.982 171.854C128.1 171.745 128.158 171.691 128.275 171.582C128.627 171.255 128.931 170.871 129.341 170.49C129.458 170.381 129.576 170.272 129.693 170.164C130.045 169.837 130.407 169.399 130.759 169.072C130.817 169.018 130.817 169.018 130.876 168.963C131.707 168.089 132.432 167.213 133.215 166.282C133.519 165.898 133.823 165.514 134.174 165.187C134.233 165.133 134.35 165.024 134.361 164.912C134.419 164.858 134.537 164.749 134.547 164.637C134.792 164.307 135.096 163.923 135.341 163.594C135.469 163.373 135.703 163.156 135.831 162.935C136.076 162.605 136.321 162.276 136.625 161.892C136.684 161.837 136.684 161.837 136.742 161.783C136.87 161.562 137.046 161.399 137.232 161.124C137.605 160.574 138.085 160.027 138.458 159.476C138.703 159.147 138.889 158.872 139.134 158.542C139.321 158.267 139.566 157.938 139.752 157.663C139.998 157.333 140.184 157.058 140.429 156.729C140.616 156.453 140.861 156.124 141.047 155.849C141.106 155.794 141.106 155.794 141.116 155.683C141.303 155.408 141.489 155.132 141.676 154.857C141.862 154.582 142.049 154.307 142.235 154.032C142.539 153.648 142.736 153.261 143.04 152.877C143.167 152.657 143.354 152.382 143.482 152.161C148.138 144.779 153.294 135.506 158.3 125.555C158.3 125.555 158.3 125.555 158.358 125.501C158.763 124.615 159.216 123.787 159.562 122.956C159.631 122.79 159.7 122.624 159.77 122.457C160.116 121.626 160.568 120.798 160.915 119.967C161.181 119.414 161.458 118.749 161.724 118.196C175.602 87.9775 177.183 92.729 179.454 92.4554C181.725 92.1817 185.032 93.3939 189.413 90.0399C194.897 85.7636 195.306 74.6777 194.835 62.1664C194.684 59.2478 195.114 56.4013 195.747 53.6725C197.39 44.8065 202.574 38.0558 203.648 33.4897C203.717 33.3235 203.739 33.0999 203.749 32.9881C203.893 32.0392 203.871 31.1419 203.801 30.1872C203.918 30.0784 204.035 29.9695 204.153 29.8606C204.211 29.8062 204.211 29.8062 204.27 29.7518C204.328 29.6974 204.328 29.6973 204.387 29.6429C204.446 29.5885 204.504 29.5341 204.563 29.4796C204.622 29.4252 204.622 29.4252 204.68 29.3708C204.797 29.2619 204.867 29.0957 204.984 28.9868C205.043 28.9324 205.043 28.9324 205.101 28.878C205.218 28.7691 205.229 28.6573 205.346 28.5485C205.405 28.494 205.463 28.4396 205.474 28.3278C205.533 28.2734 205.602 28.1071 205.661 28.0527C205.719 27.9983 205.73 27.8865 205.788 27.8321C205.847 27.7776 205.858 27.6658 205.975 27.557C206.033 27.5025 206.033 27.5025 206.044 27.3907C206.055 27.2789 206.172 27.1701 206.182 27.0583C206.182 27.0583 206.182 27.0583 206.241 27.0038C206.3 26.9494 206.3 26.9494 206.31 26.8376C206.321 26.7258 206.438 26.617 206.449 26.5052C206.449 26.5052 206.507 26.4507 206.459 26.3934C206.598 26.0609 206.688 25.6711 206.779 25.2813C206.789 25.1695 206.8 25.0576 206.81 24.9458C206.832 24.7222 206.853 24.4986 206.767 24.2721C206.597 23.819 206.26 23.4174 205.621 23.3998C205.679 23.3453 205.631 23.288 205.69 23.2335C205.69 23.2335 205.642 23.1762 205.583 23.2306C205.663 22.9526 205.801 22.6201 205.823 22.3965C205.892 22.2303 205.854 22.0611 205.924 21.8949L205.934 21.7831C205.945 21.6713 205.955 21.5595 205.966 21.4477L205.977 21.3359C205.987 21.2241 205.95 21.0549 205.96 20.9431C205.527 19.3058 203.805 18.866 203.592 18.8601C203.65 18.8057 203.602 18.7483 203.661 18.6939C203.672 18.5821 203.682 18.4703 203.741 18.4158C203.703 18.2467 203.773 18.0804 203.735 17.9113C203.746 17.7995 203.708 17.6303 203.719 17.5185C203.398 16.3887 202.305 16.0783 201.724 16.0062C201.782 15.9518 201.734 15.8944 201.734 15.8944C201.734 15.8944 201.734 15.8945 201.628 15.8915C201.729 15.3899 201.771 14.9427 201.707 14.4925C201.718 14.3807 201.68 14.2116 201.632 14.1542C201.323 14.0336 201.333 13.9218 201.237 13.807Z" fill="#D88E5E"/>
<path fill-rule="evenodd" clip-rule="evenodd" d="M121.608 199.121C113.921 196.162 105.444 192.509 99.3407 190.322C87.3858 186.125 83.1057 181.634 76.9574 183.875C75.0218 184.55 73.7904 185.693 72.9751 186.96C72.5971 188.127 72.1604 189.348 71.7612 190.739L71.7506 190.851C71.6446 191.969 71.7039 193.036 71.7738 193.991C72.2991 198.602 77.16 202.043 80.9054 204.277C86.5236 207.627 94.5104 211.94 104.417 215.184L121.656 199.179L121.608 199.121Z" fill="url(#paint3_linear_147_1312)"/>
<path fill-rule="evenodd" clip-rule="evenodd" d="M72.1662 198.929C72.6791 200.288 73.4055 201.654 74.3078 202.856C75.6051 204.406 77.1158 205.962 78.7706 207.689C83.3133 212.244 89.4615 216.226 95.3051 219.471C97.0342 220.416 98.1174 220.839 98.1174 220.839L103.279 216.047C91.0113 211.728 77.9737 204.247 72.1662 198.929Z" fill="#ECAA7E"/>
<path fill-rule="evenodd" clip-rule="evenodd" d="M72.8717 200.516C73.2724 201.368 73.7317 202.166 74.2978 202.967C75.5952 204.517 77.1061 206.072 78.7611 207.8C83.3043 212.355 89.4532 216.338 95.2975 219.583C97.0268 220.528 98.1101 220.95 98.1101 220.95L99.7526 219.425C90.5945 215.584 80.1172 209.295 72.8717 200.516Z" fill="#E7A376"/>
<path fill-rule="evenodd" clip-rule="evenodd" d="M105.436 214.146L106.139 213.492C85.0776 206.015 77.2675 197.557 72.2024 193.997C75.0243 202.598 91.5566 209.894 105.436 214.146Z" fill="#F6C3A2"/>
<defs>
<linearGradient id="paint0_linear_147_1312" x1="172.782" y1="81.2912" x2="170.88" y2="78.8209" gradientUnits="userSpaceOnUse">
<stop stop-color="#F0B186"/>
<stop offset="1" stop-color="#F5BC95"/>
</linearGradient>
<linearGradient id="paint1_linear_147_1312" x1="181.268" y1="57.9825" x2="178.369" y2="56.0639" gradientUnits="userSpaceOnUse">
<stop stop-color="#F0B186"/>
<stop offset="1" stop-color="#F5BC95"/>
</linearGradient>
<linearGradient id="paint2_linear_147_1312" x1="125.04" y1="140.963" x2="115.514" y2="132.575" gradientUnits="userSpaceOnUse">
<stop stop-color="#F0B186"/>
<stop offset="1" stop-color="#F5BC95"/>
</linearGradient>
<linearGradient id="paint3_linear_147_1312" x1="96.6341" y1="194.442" x2="90.8778" y2="206.802" gradientUnits="userSpaceOnUse">
<stop stop-color="#F0B186"/>
<stop offset="1" stop-color="#F5BC95"/>
</linearGradient>
</defs>
</svg>
